<?xml version="1.0" encoding="UTF-8"?>
<svg fill="none" viewBox="0 0 197 34" xmlns="http://www.w3.org/2000/svg">
<g fill="#253147" filter="url(#b)">
<path d="M12.4401 24.2432H9.70365V1.49454H4V1.16485H18.1767V1.49454H12.4401V24.2432Z"/>
<path d="m17.918 24.243h-0.3956l9.8577-23.078 0.3627-0.16485 8.3082 23.243h-2.8024l-2.5716-7.2532h-9.6269l-3.1321 7.2532zm8.4401-19.518l-5.1762 11.935h9.3962l-4.22-11.935z"/>
<path d="m51.516 2.5496c-2.0001-0.76928-3.8903-1.1539-5.6707-1.1539-1.7583 0-3.132 0.37365-4.1211 1.121s-1.4836 1.7803-1.4836 3.0991c0 1.6045 0.8352 2.8463 2.5056 3.7255 0.7473 0.37365 1.5606 0.72532 2.4398 1.055 0.9011 0.3077 1.8023 0.6594 2.7034 1.055 0.9012 0.3956 1.7254 0.8462 2.4727 1.3517 0.7473 0.5056 1.3517 1.2089 1.8133 2.1101 0.4616 0.8791 0.6923 2.0111 0.6923 3.3958 0 1.3627-0.3846 2.5276-1.1539 3.4947-0.7692 0.9671-1.7034 1.6265-2.8023 1.9781-1.077 0.3297-2.3408 0.4946-3.7915 0.4946-2.7034 0-5.0113-0.6704-6.9235-2.0111l0.1649-0.2638c0.7253 0.5715 1.6594 1.044 2.8023 1.4177 1.1649 0.3516 2.3518 0.5275 3.5607 0.5275 1.7803 0 3.2969-0.4066 4.5497-1.2199 1.2748-0.8352 1.9122-2.055 1.9122-3.6595 0-1.7584-0.8352-3.1321-2.5056-4.1212-0.7473-0.4396-1.5715-0.8462-2.4727-1.2198-0.8792-0.3737-1.7693-0.7583-2.6705-1.154-0.9012-0.4176-1.7254-0.8791-2.4727-1.3847-1.6704-1.0989-2.5056-2.6595-2.5056-4.6816 0-1.6045 0.5385-2.9013 1.6155-3.8904 1.0769-1.0111 2.6924-1.5166 4.8464-1.5166 2.176 0 4.3849 0.37365 6.6268 1.121l-0.1319 0.32969z"/>
<path d="m59.054 1.1648v14.572l10.649-14.572 0.2637 0.23078-5.9014 8.0444 8.7697 14.803h-3.0661l-7.3851-12.495-3.3299 4.5827v7.9126h-2.7364v-23.078h2.7364z"/>
<path d="m112.8 24.243h-2.736v-22.749h-5.704v-0.32969h14.177v0.32969h-5.737v22.749z"/>
<path d="m121.84 1.4945v-0.32969h5.869v0.32969h-1.616v22.419h1.616v0.3297h-5.869v-0.3297h1.517v-22.419h-1.517z"/>
<path d="m132.6 24.243h-0.428l2.868-23.078h1.088l6.923 21.331 6.891-21.331h1.088l2.868 23.078h-2.736l-2.275-18.463-5.967 18.463h-2.078l-6.033-18.232-2.209 18.232z"/>
<path d="m171.63 1.1648v0.32969h-10.385v9.8908h9.627v0.3297h-9.627v12.198h11.11v0.3297h-13.847v-23.078h13.122z"/>
<path d="m175.83 1.4286c2.549-0.17584 4.802-0.26375 6.758-0.26375 5.429 0 8.144 1.8133 8.144 5.4399 0 1.5386-0.374 2.9123-1.121 4.1212-0.747 1.2088-2.033 2.0111-3.858 2.4067l6.594 11.111h-3.066l-6.462-10.913h-4.253v10.913h-2.736v-22.815zm6.758 0.06594c-1.274 0-2.615 0.07692-4.022 0.23078v11.275h4.88c3.099-0.1318 4.648-2.2419 4.648-6.33 0-1.6704-0.461-2.9452-1.384-3.8244-0.924-0.90116-2.297-1.3517-4.122-1.3517z"/>
</g>
<g filter="url(#a)">
<line x1="89.406" x2="89.406" y1="4.7156" y2="2.8316" stroke="#253147"/>
<line x1="87.158" x2="91.737" y1="2.3316" y2="2.3316" stroke="#253147"/>
<circle cx="89.775" cy="14.518" r="10.205" fill="#D8E1F1"/>
<circle cx="89.775" cy="14.518" r="1.57" fill="#253147"/>
<path d="m78 7.4528l11.775 7.0648 7.0648-2.7474" stroke="#253147"/>
<path d="m96.685 18.638c-1.6109 3.5134-5.4075 5.2197-8.48 3.811" stroke="#253147"/>
</g>
<defs>
<filter id="b" x="0" y="1" width="196.35" height="31.276" color-interpolation-filters="sRGB" filterUnits="userSpaceOnUse">
<feFlood flood-opacity="0" result="BackgroundImageFix"/>
<feColorMatrix in="SourceAlpha" values="0 0 0 0 0 0 0 0 0 0 0 0 0 0 0 0 0 0 127 0"/>
<feOffset dy="4"/>
<feGaussianBlur stdDeviation="2"/>
<feColorMatrix values="0 0 0 0 0 0 0 0 0 0 0 0 0 0 0 0 0 0 0.25 0"/>
<feBlend in2="BackgroundImageFix" result="effect1_dropShadow"/>
<feBlend in="SourceGraphic" in2="effect1_dropShadow" result="shape"/>
</filter>
<filter id="a" x="73.506" y=".73279" width="30.473" height="32.93" color-interpolation-filters="sRGB" filterUnits="userSpaceOnUse">
<feFlood flood-opacity="0" result="BackgroundImageFix"/>
<feColorMatrix in="SourceAlpha" values="0 0 0 0 0 0 0 0 0 0 0 0 0 0 0 0 0 0 127 0"/>
<feOffset dy="4"/>
<feGaussianBlur stdDeviation="2"/>
<feColorMatrix values="0 0 0 0 0 0 0 0 0 0 0 0 0 0 0 0 0 0 0.25 0"/>
<feBlend in2="BackgroundImageFix" result="effect1_dropShadow"/>
<feBlend in="SourceGraphic" in2="effect1_dropShadow" result="shape"/>
</filter>
</defs>
</svg>
